<svg id="Layer_1" data-name="Layer 1" xmlns="http://www.w3.org/2000/svg" xmlns:xlink="http://www.w3.org/1999/xlink" viewBox="0 0 100 100"><defs><style>.cls-1{fill:url(#linear-gradient);}.cls-2{fill:url(#Degradado_sin_nombre_1134);}.cls-3{fill:url(#linear-gradient-2);}.cls-4{fill:url(#Degradado_sin_nombre_1134-2);}</style><linearGradient id="linear-gradient" x1="13.38" y1="95.6" x2="102.86" y2="95.6" gradientUnits="userSpaceOnUse"><stop offset="0" stop-color="#fff"/><stop offset="0.18" stop-color="#bebebe"/><stop offset="0.33" stop-color="#838383"/><stop offset="0.37" stop-color="#898989"/><stop offset="0.43" stop-color="#999"/><stop offset="0.49" stop-color="#b4b4b4"/><stop offset="0.55" stop-color="#d9d9d9"/><stop offset="0.61" stop-color="#fff"/><stop offset="1" stop-color="#fff"/></linearGradient><linearGradient id="Degradado_sin_nombre_1134" x1="5.26" y1="95.6" x2="94.74" y2="95.6" gradientUnits="userSpaceOnUse"><stop offset="0" stop-color="#fff"/><stop offset="0.23" stop-color="#eee"/><stop offset="0.39" stop-color="#565a67"/><stop offset="0.47" stop-color="#91949c"/><stop offset="0.54" stop-color="#c1c2c7"/><stop offset="0.61" stop-color="#e3e3e5"/><stop offset="0.66" stop-color="#f7f8f8"/><stop offset="0.69" stop-color="#fff"/><stop offset="0.73" stop-color="#d9d9d9"/><stop offset="0.78" stop-color="#b4b4b4"/><stop offset="0.82" stop-color="#999"/><stop offset="0.85" stop-color="#898989"/><stop offset="0.88" stop-color="#838383"/><stop offset="1" stop-color="#fff"/></linearGradient><linearGradient id="linear-gradient-2" x1="49.89" y1="70.36" x2="50.24" y2="-19.12" gradientUnits="userSpaceOnUse"><stop offset="0" stop-color="#fff"/><stop offset="0.09" stop-color="#cecece"/><stop offset="0.25" stop-color="#848484"/><stop offset="0.32" stop-color="#666"/><stop offset="0.36" stop-color="#707070"/><stop offset="0.43" stop-color="#8a8a8a"/><stop offset="0.52" stop-color="#b5b5b5"/><stop offset="0.62" stop-color="#f0f0f0"/><stop offset="0.65" stop-color="#fff"/><stop offset="1" stop-color="#fff"/></linearGradient><linearGradient id="Degradado_sin_nombre_1134-2" x1="5.26" y1="43.29" x2="94.74" y2="43.29" xlink:href="#Degradado_sin_nombre_1134"/></defs><rect class="cls-1" x="5.26" y="91.71" width="89.48" height="7.79"/><path class="cls-2" d="M94.17,92.27v6.66H5.83V92.27H94.17m.57-.56H5.26V99.5H94.74V91.71Z"/><path class="cls-3" d="M94.74,86.08H72.89V29.51L60.6,86.08H39.29L27.06,29.51V86.08H5.26V.5H41.05l9.08,49L60.71.5h34Z"/><path class="cls-4" d="M94.17,1.07V85.51H73.46V24.24l-1.12,5.15L60.15,85.51H39.75L27.61,29.39l-1.12-5.18v61.3H5.83V1.07H40.58l9,48.57.51,2.78.6-2.76L61.17,1.07h33M94.74.5h-34l-10.58,49L41.05.5H5.26V86.08h21.8V29.51L39.29,86.08H60.6L72.89,29.51V86.08H94.74V.5Z"/></svg>